<svg width="87" height="23" viewBox="0 0 87 23" fill="none" xmlns="http://www.w3.org/2000/svg">
<path fill-rule="evenodd" clip-rule="evenodd" d="M11.3855 22.7711C17.6736 22.7711 22.7711 17.6736 22.7711 11.3855C22.7711 5.09748 17.6736 0 11.3855 0C5.09748 0 0 5.09748 0 11.3855C0 17.6736 5.09748 22.7711 11.3855 22.7711ZM17.9543 16.3291C17.8902 16.256 17.7994 16.1844 17.6825 16.1142C17.6648 16.1027 17.6166 16.0749 17.538 16.0312C17.4591 15.9872 17.3962 15.9493 17.3492 15.917C17.3025 15.8848 17.2411 15.8293 17.1649 15.7503C17.089 15.6714 17.0291 15.5879 16.9851 15.5002C16.9413 15.4126 16.8989 15.2942 16.8579 15.145C16.8168 14.9957 16.7937 14.8305 16.7877 14.6492C16.7058 14.7191 16.6605 14.8581 16.6517 15.0659C16.6429 15.2735 16.6869 15.4854 16.7834 15.7018C16.8798 15.9183 17.0246 16.0585 17.2176 16.123C17.4047 16.1875 17.5553 16.256 17.6695 16.3291C17.7834 16.4023 17.8567 16.4855 17.8889 16.5791C17.9211 16.6729 17.8668 16.7737 17.7265 16.8818C17.586 16.9902 17.3609 17.0968 17.0509 17.2024C16.624 17.3485 16.3212 17.4729 16.1427 17.5751C15.9644 17.6775 15.7028 17.8721 15.3576 18.1585C15.1235 18.3516 14.875 18.4555 14.6117 18.4701C14.3487 18.4849 14.135 18.3883 13.9714 18.1807C13.8075 17.9731 13.7547 17.6793 13.8133 17.2989C13.9244 16.5679 13.9217 15.9975 13.8048 15.5882C13.7112 15.2664 13.6906 14.9827 13.7434 14.7371C13.796 14.4917 13.8778 14.3484 13.989 14.3074C14.0998 14.2663 14.22 14.3541 14.3487 14.5704C14.3601 14.5996 14.3866 14.6567 14.4274 14.7415C14.4683 14.8263 14.5019 14.8864 14.5285 14.9213C14.5548 14.9565 14.5942 15.0018 14.6469 15.0575C14.6995 15.1132 14.7656 15.1525 14.8444 15.176C14.9233 15.1994 15.0153 15.214 15.1208 15.2198C15.3196 15.2256 15.4979 15.1847 15.656 15.097C15.8138 15.0093 15.9324 14.9113 16.0113 14.8031C16.0901 14.6947 16.1692 14.5911 16.2481 14.4916C16.327 14.392 16.3958 14.3364 16.4543 14.3247C16.5186 14.3132 16.5772 14.2488 16.6298 14.1317C16.6825 14.0148 16.7176 13.8525 16.7351 13.6449C16.7528 13.4372 16.7381 13.1901 16.6914 12.9036C16.6036 12.3945 16.4294 11.836 16.1692 11.2277C15.9089 10.6194 15.6181 10.1427 15.2963 9.79755C14.7173 9.18348 14.3285 8.54595 14.1294 7.88495C13.9249 7.18898 13.8373 6.5631 13.8664 6.00741C13.8957 5.60964 13.8094 5.17826 13.6077 4.71322C13.406 4.24825 13.1382 3.89292 12.8049 3.64726C12.5943 3.4894 12.334 3.36805 12.0241 3.28317C11.7141 3.19829 11.404 3.15893 11.094 3.16471C10.7139 3.16471 10.4097 3.22607 10.1817 3.34896C9.71373 3.60052 9.40382 3.9061 9.25164 4.26582C9.09947 4.62549 9.02941 5.06855 9.04102 5.59499C9.06453 6.75311 9.11121 7.6597 9.18146 8.31474C9.0995 8.61894 8.73695 9.18913 8.09349 10.0255C7.97644 10.1426 7.86237 10.3005 7.75122 10.4993C7.64013 10.6983 7.55237 10.8767 7.48805 11.0345C7.42364 11.1924 7.33741 11.4205 7.22921 11.7188C7.12095 12.0171 7.04354 12.2277 6.99671 12.3504C6.95578 12.4559 6.8914 12.5785 6.80373 12.7191C6.71596 12.8594 6.64562 12.997 6.5931 13.1313C6.54059 13.2658 6.51127 13.4178 6.50543 13.5875C6.49959 13.7162 6.50543 13.8274 6.52301 13.9208C6.54633 14.0614 6.59031 14.1052 6.65456 14.0526C6.91789 13.8537 7.24836 13.9707 7.64603 14.4036C7.92678 14.7078 8.42107 15.4155 9.12879 16.5269C9.18727 16.6263 9.24571 16.733 9.30419 16.8473C9.36283 16.9612 9.41823 17.1132 9.47093 17.3033C9.52357 17.4937 9.54555 17.6646 9.53673 17.8167C9.52788 17.9689 9.4607 18.1093 9.33492 18.2378C9.20914 18.3664 9.02049 18.4483 8.76903 18.4834C8.63443 18.5009 8.47227 18.4893 8.28208 18.4482C8.09199 18.4073 7.8507 18.3401 7.5583 18.2465C7.26584 18.153 7.04947 18.0886 6.90907 18.0534C6.70447 18.0065 6.41349 17.9469 6.03615 17.8736C5.65885 17.8004 5.41166 17.7464 5.2947 17.7112C5.09585 17.6587 4.98768 17.5827 4.97016 17.4832C4.95258 17.4012 4.99352 17.2609 5.09299 17.0622C5.19252 16.8633 5.24215 16.7199 5.24215 16.6323C5.24793 16.5678 5.24504 16.5037 5.2333 16.4392C5.22169 16.3748 5.20853 16.3251 5.19388 16.29C5.17925 16.255 5.15439 16.2023 5.11926 16.132C5.08414 16.0619 5.06078 16.0091 5.04908 15.9742C4.94386 15.7284 4.9292 15.5615 5.00522 15.4739C5.0578 15.3979 5.18358 15.3687 5.38243 15.3863C5.68073 15.4155 5.92344 15.3716 6.11064 15.2546C6.42055 15.0616 6.51425 14.7516 6.39136 14.3245C6.39136 14.5233 6.35624 14.6723 6.28605 14.7719C6.21586 14.8713 6.09297 14.9737 5.91757 15.0791C5.81819 15.1376 5.64263 15.1726 5.39119 15.1845C5.13973 15.1962 4.97296 15.2372 4.89109 15.3073C4.83264 15.36 4.80198 15.439 4.79903 15.5443C4.79614 15.6498 4.80938 15.7563 4.83858 15.8646C4.86777 15.9728 4.89705 16.097 4.92625 16.2374C4.95553 16.3779 4.96715 16.495 4.96137 16.5884C4.95553 16.6527 4.90274 16.8122 4.80336 17.0664C4.70398 17.3209 4.68351 17.5154 4.74199 17.6499C4.77128 17.7143 4.82091 17.7714 4.89112 17.8211C4.96128 17.8708 5.05925 17.9132 5.18499 17.9484C5.31065 17.9836 5.42622 18.0113 5.53157 18.0317C5.63679 18.052 5.783 18.0785 5.97015 18.1105C6.15732 18.1425 6.30645 18.1705 6.4176 18.1938C6.79196 18.2699 7.21889 18.3956 7.69855 18.5711C8.17815 18.7466 8.50272 18.8371 8.67235 18.8429C8.83614 18.8487 8.99256 18.8152 9.14175 18.742C9.29089 18.669 9.41808 18.5856 9.52339 18.492C9.62861 18.3984 9.78509 18.3106 9.99267 18.2288C10.2004 18.1469 10.4329 18.103 10.6903 18.0971C10.8072 18.0914 10.9769 18.084 11.1991 18.0753C11.4214 18.0664 11.588 18.0621 11.6992 18.0621C12.2022 18.0621 12.5823 18.0649 12.8396 18.0708C13.0151 18.0768 13.1526 18.1045 13.2521 18.1542C13.3515 18.2039 13.4159 18.261 13.4451 18.3252C13.4743 18.3897 13.5228 18.4641 13.5901 18.549C13.6572 18.6337 13.7434 18.7025 13.8486 18.7551C14.0707 18.8605 14.3312 18.9028 14.6295 18.8823C14.9277 18.8619 15.1267 18.8048 15.2261 18.7113C15.3898 18.5534 15.6106 18.3661 15.8884 18.1498C16.1663 17.9335 16.4165 17.7696 16.6386 17.6585C16.6853 17.6349 16.7643 17.597 16.8755 17.5443C16.9865 17.4916 17.08 17.4464 17.156 17.4082C17.2321 17.3702 17.3243 17.3218 17.4323 17.2634C17.5406 17.2048 17.6283 17.1508 17.6956 17.101C17.7629 17.0513 17.8315 16.9944 17.9017 16.9299C17.9719 16.8657 18.0172 16.8013 18.0378 16.737C18.058 16.6726 18.0656 16.6068 18.0597 16.5396C18.0537 16.4724 18.0188 16.4024 17.9543 16.3291ZM13.2519 7.84946C13.2693 7.83784 13.2811 7.83342 13.2869 7.83631C13.2928 7.83926 13.3045 7.851 13.3219 7.87143C13.335 7.88662 13.3472 7.90104 13.3586 7.91464L13.3703 7.92853C13.3848 7.94592 13.4052 7.96943 13.4315 7.99862C13.4578 8.02791 13.4856 8.05126 13.5147 8.06881C13.55 8.09216 13.5923 8.10836 13.642 8.11709C13.6918 8.12581 13.7298 8.14044 13.7563 8.16088C13.7827 8.18131 13.8017 8.21493 13.8132 8.2618C13.8247 8.3262 13.815 8.38456 13.7828 8.4372C13.7504 8.4899 13.7081 8.51335 13.6553 8.50745C13.5501 8.48403 13.436 8.39197 13.3132 8.2311C13.1905 8.07025 13.17 7.94306 13.2519 7.84946ZM12.1639 4.44111C12.193 4.40309 12.2106 4.37239 12.2163 4.34904C12.228 4.31382 12.2295 4.27732 12.2208 4.2393C12.212 4.20129 12.2149 4.16328 12.2295 4.12526C12.2442 4.08725 12.2779 4.06531 12.3305 4.05947C12.3832 4.05947 12.4534 4.10338 12.5411 4.19109C12.5586 4.20283 12.5863 4.22037 12.6242 4.24373C12.6622 4.26714 12.6885 4.28758 12.7031 4.3051C12.7178 4.32255 12.725 4.33733 12.725 4.34895C12.7133 4.37814 12.6871 4.39879 12.6463 4.41041C12.6055 4.42202 12.5614 4.42799 12.5147 4.42799C12.468 4.42799 12.4415 4.43087 12.4358 4.43671C12.389 4.45429 12.3451 4.48056 12.3041 4.51563C12.2632 4.55075 12.231 4.57706 12.2077 4.5946C12.1841 4.61212 12.1608 4.61212 12.1374 4.5946C12.114 4.55948 12.1052 4.53462 12.1111 4.52005C12.1171 4.50549 12.1346 4.47912 12.1639 4.44111ZM7.91753 11.0081C7.95834 10.9614 7.98769 10.9234 8.00521 10.8941C8.02275 10.8648 8.03879 10.8253 8.05345 10.7757C8.06808 10.7259 8.08123 10.6893 8.09294 10.6659C8.10471 10.6424 8.12229 10.6337 8.14564 10.6395C8.15726 10.6366 8.16599 10.6424 8.17204 10.6571L8.18077 10.679V10.7054C8.18077 10.7142 8.17926 10.7258 8.17634 10.7405C8.17339 10.7553 8.16897 10.7684 8.16319 10.78C8.15726 10.7918 8.15145 10.8093 8.14564 10.8327C8.1398 10.856 8.13403 10.8765 8.12806 10.894C8.10471 10.9527 8.06808 11.0052 8.01845 11.052C7.9687 11.0988 7.9321 11.1193 7.90871 11.1134C7.87362 11.1018 7.87663 11.0665 7.91753 11.0081ZM13.6552 16.4213C13.6435 16.6084 13.604 16.8717 13.5367 17.211C13.4694 17.5501 13.4269 17.7754 13.4093 17.8865C13.2865 17.8805 13.2163 17.8351 13.1988 17.7503C13.1813 17.6655 13.1988 17.5559 13.2514 17.4213C13.3801 17.0293 13.4471 16.7603 13.4531 16.6142C13.465 16.3451 13.4357 16.193 13.3656 16.158C13.301 16.1112 13.2017 16.199 13.0672 16.4211C12.8096 16.8422 12.2921 17.0965 11.5142 17.1845C10.8125 17.2781 10.327 17.1728 10.0579 16.8685C9.9994 16.8275 9.94092 16.8203 9.88247 16.8467C9.82399 16.8728 9.78598 16.9007 9.76843 16.9297C9.76265 16.9415 9.76843 16.959 9.78601 16.9824C9.80355 17.0059 9.83133 17.0409 9.86935 17.0877C9.90736 17.1347 9.93806 17.1813 9.96141 17.2283C10.1896 17.6259 10.1692 17.8949 9.90005 18.0353C9.90005 17.7665 9.87958 17.5602 9.83868 17.417C9.79772 17.2737 9.71591 17.1158 9.59302 16.9431C9.47026 16.7706 9.38544 16.6404 9.3387 16.5528C9.51411 16.5353 9.6472 16.468 9.73788 16.351C9.82854 16.234 9.86944 16.1083 9.86071 15.9738C9.85192 15.8392 9.80079 15.728 9.70719 15.6403C9.65454 15.5877 9.38249 15.3639 8.89121 14.9691C8.39996 14.5743 8.09577 14.3096 7.97884 14.1751C7.95533 14.1517 7.88524 14.0932 7.76822 13.9996C7.65117 13.906 7.57803 13.8242 7.54884 13.7539C7.27973 13.1635 7.25054 12.6778 7.46107 12.2977L7.49613 12.2539C7.52533 12.2481 7.52828 12.3007 7.50486 12.4119C7.4698 12.5757 7.45815 12.7393 7.4698 12.9032C7.49315 13.2718 7.59846 13.5466 7.78561 13.7278C7.9085 13.8508 7.99325 13.842 8.04008 13.7016C8.07521 13.6547 8.09125 13.4822 8.0883 13.1837C8.0855 12.8856 8.08984 12.6838 8.10154 12.5784C8.14838 12.245 8.28731 11.8326 8.5183 11.3415C8.7493 10.8501 8.93218 10.5869 9.06668 10.5518C8.96137 10.3822 8.92775 10.1979 8.96579 9.99905C9.00375 9.80017 9.06527 9.63045 9.15002 9.49016C9.23474 9.34982 9.32113 9.18757 9.40877 9.00328C9.49653 8.81902 9.54038 8.65376 9.54038 8.50754C9.54038 8.46667 9.5434 8.43739 9.54923 8.41984C9.56675 8.3672 9.63989 8.43152 9.76855 8.61279C10.0142 8.9755 10.1985 9.18904 10.3213 9.25336C10.45 9.32345 10.5932 9.32057 10.7512 9.24451C10.9091 9.16848 11.1035 9.0427 11.3346 8.8673C11.5655 8.69189 11.763 8.56316 11.9268 8.48136C11.9444 8.47543 11.9721 8.46228 12.0103 8.44181C12.0481 8.42147 12.0774 8.40675 12.0978 8.3979C12.1181 8.38917 12.1445 8.37605 12.1768 8.35847C12.2087 8.34092 12.2336 8.3263 12.2511 8.31456C12.2687 8.30279 12.2863 8.28964 12.3037 8.27501C12.3211 8.26032 12.3328 8.24582 12.3388 8.23116C12.3447 8.21653 12.3477 8.20341 12.3477 8.19167C12.3359 8.139 12.3111 8.10679 12.273 8.09518C12.2349 8.0835 12.1838 8.09075 12.1195 8.11715C12.0551 8.14348 11.9834 8.17861 11.9045 8.22243C11.8256 8.26628 11.7379 8.316 11.6414 8.37159C11.5449 8.42718 11.4469 8.47829 11.3476 8.52515C11.2482 8.57198 11.1428 8.61292 11.0317 8.64804C10.9206 8.68307 10.8153 8.70363 10.7159 8.70947C10.4702 8.71534 10.2743 8.65111 10.1281 8.51648C10.0346 8.42866 9.98489 8.37313 9.97896 8.34974C9.97306 8.32642 9.99943 8.32058 10.0579 8.3322C10.3738 8.37316 10.6048 8.37894 10.7511 8.34974C10.9031 8.32642 11.1078 8.25909 11.3652 8.14794C11.4179 8.12459 11.5508 8.06749 11.7645 7.97684C11.9779 7.88631 12.1432 7.8234 12.2601 7.78828C12.3305 7.7707 12.3788 7.74295 12.4051 7.70494C12.4312 7.66692 12.4401 7.6318 12.4312 7.59959C12.4225 7.56748 12.4035 7.54265 12.3744 7.5251C12.3099 7.48998 12.2514 7.51343 12.199 7.59529C12.1696 7.64793 12.1081 7.69919 12.0146 7.74885C11.9211 7.79863 11.8347 7.83658 11.7558 7.86289C11.6768 7.88916 11.5759 7.91989 11.453 7.95496C11.3302 7.99008 11.263 8.01055 11.2512 8.01639C10.9296 8.11577 10.6313 8.15968 10.3564 8.14794C10.2277 8.14216 10.1239 8.12308 10.045 8.09091C9.96599 8.05882 9.91182 8.02081 9.88265 7.97687C9.85337 7.93308 9.80663 7.87749 9.74228 7.81019C9.67787 7.74289 9.60473 7.68588 9.5229 7.63902C9.46442 7.60983 9.44245 7.55719 9.4571 7.48116C9.47173 7.40514 9.51706 7.3261 9.59308 7.24423C9.59892 7.23833 9.65891 7.20186 9.77292 7.13456C9.88696 7.06726 9.96741 6.99852 10.0143 6.92833C10.0668 6.84646 10.1575 6.76159 10.2862 6.67382C10.292 6.65047 10.2964 6.58615 10.2993 6.48087C10.3022 6.37565 10.2745 6.26158 10.216 6.13875C10.1575 6.01586 10.0785 5.95453 9.97905 5.95453C9.83865 5.94869 9.73924 5.98959 9.68076 6.07735C9.62228 6.165 9.59604 6.27326 9.60184 6.40192C9.60777 6.51301 9.63555 6.61092 9.68518 6.6958C9.73493 6.78067 9.78029 6.82311 9.82122 6.82311C9.88551 6.81718 9.90598 6.8405 9.88259 6.8932C9.84753 6.95761 9.80067 6.99864 9.74222 7.01609C9.70116 7.02771 9.6558 6.98828 9.60618 6.89763C9.55642 6.80698 9.51844 6.69736 9.49214 6.56863C9.46586 6.43997 9.45554 6.33177 9.46147 6.24394C9.47308 6.06263 9.5213 5.88861 9.60618 5.7219C9.69105 5.55522 9.8124 5.47477 9.97026 5.48055C10.1341 5.48648 10.2658 5.58598 10.3651 5.77894C10.4647 5.97192 10.5114 6.23525 10.5056 6.5686C10.5232 6.60957 10.5685 6.62419 10.6416 6.61246C10.7146 6.60072 10.8112 6.59921 10.9311 6.60803C11.0509 6.61676 11.1371 6.64743 11.1898 6.7001C11.1957 6.7001 11.1987 6.65615 11.1987 6.56848C11.0934 5.83161 11.3536 5.43971 11.9795 5.39288C12.0729 5.41045 12.1519 5.43243 12.2161 5.45867C12.2807 5.48494 12.3492 5.52892 12.4224 5.59028C12.4957 5.65165 12.5568 5.74083 12.6066 5.85788C12.6563 5.97499 12.6959 6.12121 12.7251 6.29661V6.62118C12.7251 6.80833 12.6869 6.91364 12.6109 6.93706C12.4882 6.97796 12.4005 6.97654 12.348 6.93263C12.2953 6.88869 12.301 6.81128 12.3654 6.70013C12.4239 6.55392 12.4122 6.38416 12.3303 6.19118C12.2485 5.99823 12.0992 5.91046 11.8829 5.92804C11.7366 5.93391 11.6313 6.01288 11.567 6.1649C11.5026 6.31699 11.4793 6.46615 11.4969 6.61239C11.5144 6.75861 11.5465 6.83463 11.5934 6.84044C11.6285 6.84637 11.7324 6.89311 11.9049 6.98088C12.0777 7.06861 12.2078 7.12122 12.2954 7.13877C12.5235 7.18548 12.6535 7.25861 12.6857 7.35809C12.7179 7.45762 12.7048 7.60233 12.6463 7.79239C12.5878 7.98258 12.5703 8.13891 12.5938 8.2618C12.6172 8.39061 12.6611 8.50745 12.7255 8.61273C12.7899 8.7181 12.8584 8.81453 12.9316 8.90233C13.0047 8.98988 13.0908 9.15379 13.1905 9.39355C13.2898 9.63343 13.3805 9.93461 13.4623 10.2973C13.468 10.3031 13.4899 10.3236 13.528 10.3587C13.5661 10.3937 13.604 10.4376 13.6421 10.4902C13.6803 10.5429 13.7255 10.6145 13.7782 10.7052C13.8308 10.7959 13.888 10.929 13.9494 11.1045C14.0106 11.2799 14.0678 11.4818 14.1204 11.7098C14.1848 11.979 14.2184 12.2917 14.2213 12.6487C14.2243 13.0054 14.2476 13.2496 14.2916 13.3813C14.3355 13.5131 14.4481 13.5671 14.6294 13.5437C14.8575 13.532 15.0039 13.4092 15.0679 13.1752C15.261 12.4967 15.1032 11.6835 14.5943 10.7361C14.4012 10.3676 14.2346 10.1249 14.0941 10.0079C14.2988 10.1249 14.5094 10.3441 14.7259 10.666C14.9424 10.9877 15.0797 11.289 15.1382 11.5696C15.1439 11.5989 15.1601 11.6764 15.1863 11.8021C15.2126 11.9278 15.2273 12.001 15.2301 12.0215C15.2329 12.0419 15.2448 12.1019 15.2651 12.2013C15.2857 12.3008 15.2958 12.3651 15.2958 12.3944C15.2958 12.4237 15.2987 12.4807 15.3046 12.5655C15.3106 12.6502 15.3091 12.716 15.3002 12.7628C15.2914 12.8097 15.2828 12.8726 15.2739 12.9514C15.2651 13.0304 15.2506 13.1064 15.2301 13.1796C15.2099 13.2527 15.1879 13.3333 15.1645 13.4209C15.486 13.5613 15.6469 13.684 15.6469 13.7894C15.5242 13.6899 15.3486 13.6242 15.1204 13.5923C14.8922 13.56 14.6804 13.5907 14.4844 13.6843C14.2883 13.7779 14.1874 13.9328 14.1815 14.1491C13.971 14.1491 13.8217 14.2017 13.7341 14.3072C13.6055 14.4592 13.5383 14.6653 13.5325 14.9257C13.5266 15.1858 13.5483 15.4697 13.5981 15.7765C13.648 16.0836 13.667 16.2984 13.6552 16.4213ZM9.97921 6.25267C9.96163 6.24689 9.94703 6.22922 9.93542 6.20003C9.93542 6.14751 9.96166 6.12689 10.0143 6.13866C10.0495 6.15028 10.0832 6.19419 10.1152 6.27022C10.1474 6.34624 10.1547 6.43401 10.1372 6.53345C10.1372 6.551 10.1285 6.55985 10.1108 6.55969C10.0464 6.55969 10.0231 6.50124 10.0406 6.38429C10.0581 6.29655 10.0377 6.25267 9.97921 6.25267ZM12.2516 6.39314L12.2341 6.41941C12.1874 6.4486 12.1642 6.45447 12.1642 6.43699C12.1406 6.27897 12.088 6.18832 12.0062 6.1649L11.9711 6.14739C11.9301 6.11226 11.9505 6.0918 12.0323 6.08596C12.0498 6.08009 12.0761 6.08882 12.1113 6.11223C12.1464 6.13568 12.1786 6.17225 12.2078 6.22197C12.2369 6.27175 12.2516 6.3287 12.2516 6.39314ZM10.2073 6.90184C10.2073 6.93696 10.222 6.95159 10.2513 6.94578C10.2746 6.94578 10.2994 6.91797 10.3257 6.86241C10.3521 6.80698 10.3975 6.77628 10.4617 6.77035V6.77025H10.374C10.2629 6.7878 10.2073 6.83165 10.2073 6.90184ZM11.1243 6.8362C11.0804 6.79235 11.0292 6.77907 10.9707 6.79665C11.1111 6.73233 11.2047 6.73817 11.2514 6.81423C11.269 6.84929 11.2602 6.87569 11.2252 6.89314C11.2018 6.89907 11.1681 6.87999 11.1243 6.8362Z" fill="#FFFFFF"/>
<path d="M42.1545 14.5795L41.826 19.2H29.6836V18.4226C29.8588 18.408 30.1106 18.3825 30.4391 18.346C30.7748 18.3095 31.0084 18.262 31.1398 18.2037C31.3588 18.1088 31.5157 17.9701 31.6106 17.7876C31.7128 17.6051 31.7639 17.3715 31.7639 17.0869V5.96269C31.7639 5.71452 31.7201 5.49554 31.6325 5.30575C31.5522 5.11597 31.388 4.96269 31.1398 4.8459C30.9719 4.7583 30.7347 4.67436 30.4281 4.59407C30.1289 4.50648 29.8807 4.45538 29.6836 4.44078V3.66341H36.242V4.44078C36.0377 4.44808 35.7712 4.48458 35.4428 4.55027C35.1216 4.61597 34.888 4.67436 34.742 4.72546C34.4938 4.81305 34.3223 4.96269 34.2274 5.17437C34.1398 5.38605 34.096 5.61233 34.096 5.8532V16.2876C34.096 16.7693 34.1179 17.1453 34.1617 17.4153C34.2128 17.6781 34.326 17.8825 34.5011 18.0285C34.669 18.1599 34.9172 18.2474 35.2457 18.2912C35.5814 18.3277 36.0486 18.346 36.6471 18.346C36.9172 18.346 37.1982 18.3387 37.4902 18.3241C37.7822 18.3095 38.0596 18.2803 38.3223 18.2365C38.5778 18.1927 38.8114 18.1343 39.0231 18.0613C39.2421 17.981 39.4026 17.8825 39.5048 17.7657C39.8041 17.4299 40.1508 16.9226 40.545 16.2438C40.9464 15.5576 41.2238 15.0029 41.3771 14.5795H42.1545Z" fill="#FFFFFF"/>
<path d="M48.1764 19.2H42.9538V18.4774C43.1216 18.4628 43.2932 18.4482 43.4684 18.4336C43.6508 18.419 43.8078 18.3898 43.9392 18.346C44.1435 18.2803 44.2932 18.1672 44.3881 18.0066C44.4903 17.8387 44.5414 17.6234 44.5414 17.3606V10.6927C44.5414 10.4591 44.4866 10.2474 44.3771 10.0576C44.2749 9.86053 44.1289 9.69629 43.9392 9.56491C43.8005 9.47732 43.5997 9.40432 43.337 9.34593C43.0742 9.28023 42.8333 9.24009 42.6143 9.22549V8.5138L46.4246 8.27293L46.5779 8.42621V17.2292C46.5779 17.4847 46.6253 17.6963 46.7202 17.8642C46.8224 18.0321 46.9793 18.1562 47.191 18.2365C47.3516 18.3022 47.5085 18.3569 47.6618 18.4007C47.8151 18.4372 47.9866 18.4628 48.1764 18.4774V19.2ZM46.7969 4.01377C46.7969 4.42984 46.6582 4.7948 46.3808 5.10867C46.1107 5.41524 45.7749 5.56853 45.3735 5.56853C45.0012 5.56853 44.6764 5.42254 44.399 5.13057C44.1289 4.8313 43.9939 4.49188 43.9939 4.11231C43.9939 3.71085 44.1289 3.36049 44.399 3.06121C44.6764 2.76194 45.0012 2.6123 45.3735 2.6123C45.7895 2.6123 46.129 2.75464 46.3917 3.03931C46.6618 3.31669 46.7969 3.64151 46.7969 4.01377Z" fill="#FFFFFF"/>
<path d="M61.4247 19.2H56.1363V18.4774C56.3042 18.4628 56.4867 18.4482 56.6838 18.4336C56.8882 18.419 57.056 18.3898 57.1874 18.346C57.3918 18.2803 57.5414 18.1672 57.6363 18.0066C57.7385 17.8387 57.7896 17.6234 57.7896 17.3606V11.8094C57.7896 11.043 57.6071 10.4518 57.2422 10.0357C56.8845 9.61965 56.4466 9.41162 55.9283 9.41162C55.5414 9.41162 55.1874 9.47367 54.8662 9.59775C54.5451 9.71454 54.2604 9.86053 54.0122 10.0357C53.7714 10.2036 53.5779 10.3861 53.4319 10.5832C53.2932 10.7729 53.1911 10.9262 53.1254 11.043V17.2511C53.1254 17.4993 53.1765 17.7036 53.2786 17.8642C53.3808 18.0248 53.5341 18.1489 53.7385 18.2365C53.8918 18.3095 54.056 18.3642 54.2312 18.4007C54.4137 18.4372 54.5998 18.4628 54.7896 18.4774V19.2H49.5012V18.4774C49.6691 18.4628 49.8407 18.4482 50.0159 18.4336C50.1983 18.419 50.3553 18.3898 50.4867 18.346C50.691 18.2803 50.8407 18.1672 50.9356 18.0066C51.0378 17.8387 51.0889 17.6234 51.0889 17.3606V10.6927C51.0889 10.4445 51.0341 10.2182 50.9246 10.0138C50.8224 9.80213 50.6764 9.6306 50.4867 9.49921C50.348 9.41162 50.1837 9.34958 49.994 9.31308C49.8042 9.26928 49.5998 9.24009 49.3808 9.22549V8.5138L52.9721 8.27293L53.1254 8.42621V9.94812H53.1801C53.3553 9.77294 53.5743 9.56491 53.837 9.32403C54.0998 9.07585 54.348 8.87512 54.5816 8.72184C54.8517 8.54665 55.1728 8.40067 55.5451 8.28388C55.9174 8.16709 56.3371 8.10869 56.8042 8.10869C57.8407 8.10869 58.6071 8.43351 59.1035 9.08315C59.6072 9.72549 59.859 10.5832 59.859 11.6562V17.273C59.859 17.5285 59.9028 17.7365 59.9904 17.8971C60.078 18.0504 60.2276 18.1708 60.4393 18.2584C60.6145 18.3314 60.7641 18.3825 60.8882 18.4117C61.0196 18.4409 61.1984 18.4628 61.4247 18.4774V19.2Z" fill="#FFFFFF"/>
<path d="M74.3226 19.0029L70.808 19.2438L70.6437 19.0905V17.7219H70.578C70.4029 17.9044 70.2058 18.1015 69.9868 18.3131C69.7678 18.5175 69.516 18.7037 69.2313 18.8715C68.9028 19.0686 68.5853 19.2183 68.2787 19.3204C67.9722 19.4226 67.5379 19.4737 66.9758 19.4737C66.0196 19.4737 65.2897 19.1635 64.786 18.5431C64.2897 17.9153 64.0415 17.0066 64.0415 15.8168V10.6489C64.0415 10.3861 63.9904 10.1671 63.8882 9.99192C63.7933 9.80943 63.651 9.6525 63.4612 9.52111C63.3298 9.43352 63.1656 9.37148 62.9685 9.33498C62.7714 9.29118 62.5634 9.26199 62.3444 9.24739V8.5357L65.9466 8.27293L66.1109 8.42621V15.9263C66.1109 16.7073 66.286 17.2949 66.6364 17.6891C66.9868 18.0832 67.4065 18.2803 67.8955 18.2803C68.297 18.2803 68.6547 18.2183 68.9685 18.0942C69.2824 17.9701 69.5452 17.8241 69.7569 17.6562C69.9539 17.5029 70.1255 17.3423 70.2715 17.1744C70.4247 16.9993 70.5415 16.8387 70.6218 16.6927V10.5722C70.6218 10.3313 70.5707 10.1197 70.4685 9.93717C70.3664 9.74739 70.224 9.5868 70.0415 9.45542C69.9101 9.36783 69.7131 9.31673 69.4503 9.30213C69.1948 9.28023 68.9065 9.26199 68.5853 9.24739V8.5357L72.5051 8.27293L72.6693 8.42621V16.9993C72.6693 17.2474 72.7204 17.4591 72.8226 17.6343C72.9248 17.8095 73.0671 17.9591 73.2496 18.0832C73.381 18.1635 73.5379 18.2183 73.7204 18.2474C73.9029 18.2693 74.1036 18.2839 74.3226 18.2912V19.0029Z" fill="#FFFFFF"/>
<path d="M86.0489 19.2H81.1V18.4774C81.4285 18.4409 81.7058 18.4044 81.9321 18.3679C82.1657 18.3314 82.2825 18.2365 82.2825 18.0832C82.2825 18.0175 82.246 17.9153 82.173 17.7766C82.1 17.638 82.027 17.5102 81.954 17.3934C81.7715 17.1088 81.5197 16.7292 81.1985 16.2547C80.8847 15.773 80.4978 15.2 80.038 14.5357C79.6584 15.0102 79.308 15.4737 78.9869 15.9263C78.6657 16.3715 78.3299 16.846 77.9795 17.3496C77.9285 17.4226 77.8737 17.5139 77.8153 17.6234C77.7642 17.7328 77.7387 17.8204 77.7387 17.8861C77.7387 18.0467 77.8409 18.1818 78.0452 18.2912C78.2569 18.3934 78.5708 18.4628 78.9869 18.4993V19.2H74.9905V18.5212C75.4868 18.3752 75.8846 18.2 76.1839 17.9956C76.4905 17.7839 76.7715 17.5248 77.027 17.2182C77.2533 16.9263 77.5671 16.5248 77.9686 16.0139C78.3774 15.5029 78.9029 14.8095 79.5452 13.9335C79.173 13.4007 78.7168 12.7511 78.1766 11.9846C77.6438 11.2109 77.2022 10.5686 76.8518 10.0576C76.662 9.78024 76.443 9.55761 76.1949 9.38972C75.954 9.21454 75.6109 9.12695 75.1657 9.12695V8.40431H79.8628V9.12695C79.6292 9.12695 79.3993 9.14155 79.173 9.17074C78.9467 9.19994 78.8336 9.26564 78.8336 9.36783C78.8336 9.43352 78.8555 9.50651 78.8993 9.5868C78.9431 9.6671 78.9978 9.75469 79.0635 9.84958C79.2241 10.0978 79.4723 10.481 79.808 10.9992C80.1511 11.5175 80.5197 12.0649 80.9139 12.6416C81.1693 12.2912 81.465 11.8824 81.8007 11.4153C82.1438 10.9481 82.4577 10.5029 82.7424 10.0795C82.7715 10.0284 82.8007 9.96637 82.8299 9.89338C82.8591 9.81308 82.8737 9.73644 82.8737 9.66345C82.8737 9.51016 82.746 9.38972 82.4905 9.30213C82.2423 9.20724 82.0051 9.14155 81.7788 9.10505V8.40431H85.7643V9.08315C85.2022 9.22914 84.7643 9.40432 84.4504 9.6087C84.1365 9.80578 83.8701 10.0357 83.6511 10.2985C83.4102 10.5978 83.1219 10.9664 82.7861 11.4043C82.4577 11.8423 81.9942 12.4554 81.3956 13.2438C82.0599 14.1781 82.6 14.9445 83.0161 15.543C83.4321 16.1416 83.8518 16.7584 84.2752 17.3934C84.4869 17.7146 84.7205 17.9701 84.9759 18.1599C85.2387 18.3423 85.5964 18.4482 86.0489 18.4774V19.2Z" fill="#FFFFFF"/>
</svg>
