<svg width="72" height="17" viewBox="0 0 72 17" fill="none" xmlns="http://www.w3.org/2000/svg">
<path d="M0 4.4564H2.61317V6.46294H2.65984C3.17314 5.08636 4.50306 4.19975 5.97297 4.24641C7.46621 4.12975 8.8428 5.10969 9.21611 6.5796H9.2861C9.8694 5.10969 11.316 4.19975 12.9026 4.24641C14.8858 4.12975 16.589 5.66966 16.6823 7.65287C16.6823 7.81619 16.6823 7.95618 16.6823 8.11951V16.0757H13.9525V8.7728C13.9525 7.37289 13.2059 6.53294 11.8526 6.53294C10.6627 6.5096 9.65941 7.46621 9.63608 8.65614C9.63608 8.72614 9.63608 8.79613 9.63608 8.88946V16.0524H6.99958V8.60948C7.0929 7.55954 6.32295 6.60293 5.27301 6.5096C5.15635 6.5096 5.06303 6.5096 4.94637 6.5096C3.70977 6.5096 2.7065 7.51288 2.7065 8.74947C2.7065 8.81946 2.7065 8.86613 2.7065 8.91279V16.029H0V4.4564Z" fill="#FFFFFF"/>
<path d="M18.3856 12.7392C18.3856 10.686 19.9721 9.44943 22.7953 9.23944L25.8518 9.09945V8.2595C25.8518 7.04624 25.0351 6.34628 23.6819 6.34628C22.3286 6.34628 21.582 6.97624 21.3954 7.93285H18.8989C18.9922 5.76298 20.8354 4.19975 23.7986 4.19975C26.7617 4.19975 28.5349 5.71632 28.5349 8.04951V16.029H25.8984V14.1858C25.1518 15.4691 23.7752 16.239 22.3053 16.2157C20.0188 16.239 18.3856 14.8158 18.3856 12.7392ZM25.8518 11.736V10.8493L23.1686 11.0127C21.862 11.106 21.0921 11.7126 21.0921 12.5992C21.0921 13.4858 21.8853 14.1625 23.0519 14.1625C24.4752 14.2791 25.7118 13.2059 25.8284 11.7826C25.8518 11.7826 25.8518 11.7593 25.8518 11.736Z" fill="#FFFFFF"/>
<path d="M38.381 8.58615C38.241 7.30289 37.1211 6.36961 35.8378 6.41628C34.1113 6.41628 33.038 7.86286 33.038 10.2427C33.038 12.6226 34.1579 14.0691 35.8845 14.0691C37.1444 14.1391 38.241 13.2292 38.4043 11.9693H40.9708C40.7375 14.5591 38.7543 16.2623 35.8378 16.2623C32.4547 16.2623 30.2382 13.9992 30.2382 10.2427C30.2382 6.48627 32.4314 4.19975 35.8145 4.19975C38.871 4.19975 40.7609 6.13629 40.9475 8.58615H38.381Z" fill="#FFFFFF"/>
<path d="M57.2799 8.16617C57.2799 13.1825 54.3867 16.309 49.8136 16.309C45.2406 16.309 42.3008 13.1825 42.3008 8.16617C42.3008 3.14981 45.1939 0 49.7903 0C54.3867 0 57.2799 3.12648 57.2799 8.16617ZM45.1939 8.16617C45.1939 11.666 46.9671 13.9058 49.7903 13.9058C52.6135 13.9058 54.41 11.666 54.41 8.16617C54.41 4.66638 52.6135 2.40319 49.8136 2.40319C47.0138 2.40319 45.1939 4.64305 45.1939 8.16617Z" fill="#FFFFFF"/>
<path d="M61.5963 11.596C61.7829 13.0425 63.2295 13.9992 65.1427 13.9992C67.0559 13.9992 68.3625 13.0425 68.3625 11.736C68.3625 10.5927 67.5459 9.9394 65.5627 9.47276L63.5095 9.00612C60.593 8.30616 59.2164 6.90625 59.2164 4.68972C59.2164 1.88989 61.6663 0 65.0961 0C68.5258 0 70.8824 1.88989 70.929 4.66638H68.2459C68.1292 3.19647 66.8459 2.30986 65.0727 2.30986C63.2995 2.30986 62.0862 3.19647 62.0862 4.50306C62.0862 5.553 62.8795 6.15963 64.8161 6.60293L66.636 7.02291C69.8324 7.76953 71.1857 9.07612 71.1857 11.4326C71.1857 14.4191 68.7825 16.3323 64.9561 16.3323C61.3163 16.3323 58.9364 14.5358 58.8198 11.6193L61.5963 11.596Z" fill="#FFFFFF"/>
</svg>
