<svg width="102" height="23" viewBox="0 0 102 23" fill="none" xmlns="http://www.w3.org/2000/svg">
<path d="M10.0674 10.6479H22.1667V0L10.0674 1.72847V10.6479Z" fill="#FFFFFF"/>
<path d="M9.18334 10.6479V1.84722L0 3.16667V10.6479H9.18334Z" fill="#FFFFFF"/>
<path d="M9.18334 11.5188H0V19.1056L9.18334 20.3854V11.5188Z" fill="#FFFFFF"/>
<path d="M10.0674 11.5188V20.5042L22.1667 22.1931V11.5188H10.0674Z" fill="#FFFFFF"/>
<path d="M46.0223 4.48611L42.275 17.7465H40.4542L37.7229 8.04862C37.6174 7.67917 37.5514 7.24375 37.525 6.70278H37.4854C37.4327 7.16459 37.3535 7.6 37.2347 8.02223L34.4903 17.7333H32.6827L28.8035 4.47292H30.5056L33.3292 14.6458C33.4479 15.0945 33.5271 15.5431 33.5667 15.9785H33.6063C33.6327 15.609 33.725 15.1604 33.8834 14.6458L36.8257 4.47292H38.3299L41.1271 14.7118C41.2327 15.0945 41.3118 15.5035 41.3514 15.9389H41.391C41.4174 15.6222 41.5098 15.2 41.6417 14.6722L44.3466 4.45972H46.0223V4.48611Z" fill="#FFFFFF"/>
<path d="M49.057 5.13264C49.057 5.40973 48.9646 5.64723 48.7667 5.84514C48.5688 6.02986 48.3313 6.12223 48.0674 6.12223C47.7903 6.12223 47.5528 6.02986 47.3681 5.84514C47.1834 5.66042 47.0778 5.42292 47.0778 5.13264C47.0778 4.86875 47.1702 4.64445 47.3549 4.44653C47.5396 4.24861 47.7771 4.15625 48.0674 4.15625C48.3445 4.15625 48.582 4.24861 48.7799 4.44653C48.9514 4.63125 49.057 4.85556 49.057 5.13264ZM48.7931 17.7465H47.2757V8.27292H48.7931V17.7465Z" fill="#FFFFFF"/>
<path d="M58.966 17.7465H57.4487V12.35C57.4487 10.3445 56.7098 9.34167 55.2452 9.34167C54.4931 9.34167 53.873 9.61876 53.3716 10.1861C52.8702 10.7535 52.6195 11.466 52.6195 12.35V17.7465H51.1021V8.27292H52.6195V9.84306H52.6591C53.3716 8.64237 54.4007 8.03542 55.7598 8.03542C56.8021 8.03542 57.5938 8.37848 58.1348 9.0514C58.6757 9.72431 58.9528 10.6875 58.9528 11.941V17.7465H58.966Z" fill="#FFFFFF"/>
<path d="M69.482 17.7465H67.9646V16.1368H67.925C67.2257 17.3639 66.1438 17.9708 64.666 17.9708C63.4653 17.9708 62.5153 17.5354 61.8028 16.6778C61.0903 15.8202 60.7341 14.6722 60.7341 13.234C60.7341 11.6639 61.1299 10.4104 61.9084 9.46042C62.7 8.51042 63.7424 8.03542 65.0619 8.03542C66.3549 8.03542 67.3049 8.55001 67.8987 9.56598H67.9382V3.70764H69.4556V17.7465H69.482ZM67.9778 13.4715V12.0729C67.9778 11.2945 67.7139 10.6347 67.1993 10.1201C66.6848 9.60556 66.0514 9.34167 65.2994 9.34167C64.3889 9.34167 63.6632 9.68473 63.1223 10.3576C62.5813 11.0306 62.3174 11.9674 62.3174 13.1681C62.3174 14.25 62.5681 15.1076 63.0695 15.741C63.5709 16.3743 64.257 16.691 65.1146 16.691C65.9459 16.691 66.632 16.3875 67.173 15.7806C67.7007 15.1736 67.9778 14.4083 67.9778 13.4715Z" fill="#FFFFFF"/>
<path d="M80.6973 12.9833C80.6973 14.4875 80.2751 15.7014 79.4174 16.6118C78.5598 17.5222 77.4251 17.984 75.9869 17.984C74.5883 17.984 73.4667 17.5354 72.6355 16.6514C71.8042 15.7542 71.382 14.5931 71.382 13.1285C71.382 11.5583 71.8042 10.3313 72.6619 9.42084C73.5195 8.51042 74.6938 8.06181 76.198 8.06181C77.6098 8.06181 78.7049 8.49723 79.4966 9.38126C80.3014 10.2521 80.6973 11.4528 80.6973 12.9833ZM79.1535 13.0361C79.1535 11.8486 78.8896 10.9382 78.3619 10.3049C77.8341 9.67154 77.082 9.35487 76.1056 9.35487C75.1292 9.35487 74.3639 9.68473 73.7966 10.3313C73.2292 10.9778 72.9521 11.9014 72.9521 13.0757C72.9521 14.2104 73.2424 15.0945 73.8098 15.7278C74.3771 16.3611 75.1424 16.691 76.1188 16.691C77.1084 16.691 77.8605 16.3743 78.3882 15.7542C78.8896 15.1077 79.1535 14.2104 79.1535 13.0361Z" fill="#FFFFFF"/>
<path d="M94.5251 8.28612L91.6883 17.7597H90.1181L88.1653 10.9778C88.0994 10.7403 88.0466 10.45 88.0202 10.107H87.9806C87.9674 10.3181 87.9014 10.6083 87.7827 10.9514L85.6716 17.7465H84.1542L81.291 8.27292H82.8876L84.8403 15.3979C84.9063 15.6486 84.9459 15.9257 84.9723 16.2424H85.0514C85.0646 16.0049 85.1174 15.7146 85.223 15.3715L87.4001 8.27292H88.7855L90.7514 15.4111C90.8174 15.6486 90.857 15.9389 90.8834 16.2556H90.9626C90.9758 15.9653 91.0285 15.675 91.1077 15.4111L93.0341 8.27292H94.5251V8.28612Z" fill="#FFFFFF"/>
<path d="M101.004 15.2132C101.004 16.0313 100.687 16.7042 100.054 17.2056C99.4202 17.7202 98.5758 17.9708 97.5334 17.9708C96.6362 17.9708 95.8577 17.7861 95.1848 17.4035V15.7806C95.9369 16.3875 96.7549 16.691 97.639 16.691C98.8396 16.691 99.4466 16.2556 99.4466 15.3715C99.4466 15.0153 99.3278 14.725 99.0903 14.5007C98.8528 14.2764 98.3251 13.9729 97.4938 13.5903C96.6494 13.234 96.0688 12.8514 95.7126 12.4424C95.3695 12.0333 95.198 11.4924 95.198 10.8063C95.198 10.0278 95.5146 9.36806 96.1348 8.84029C96.7681 8.31251 97.5598 8.04862 98.523 8.04862C99.2751 8.04862 99.948 8.19376 100.542 8.49723V10.0278C99.9216 9.57917 99.2091 9.35487 98.391 9.35487C97.8897 9.35487 97.4938 9.47362 97.1903 9.72431C96.8869 9.97501 96.7285 10.2917 96.7285 10.6743C96.7285 11.0965 96.8473 11.4132 97.0848 11.6375C97.3223 11.8618 97.7973 12.1257 98.5362 12.4424C99.4334 12.825 100.067 13.2208 100.436 13.6431C100.819 14.0521 101.004 14.5799 101.004 15.2132Z" fill="#FFFFFF"/>
</svg>
