<svg xmlns="http://www.w3.org/2000/svg" viewBox="0 0 1942 550.79"><title>Asset 2</title><path d="M1699.94,274.6c-130.7,41.273-232.714,52.733-310.311,45.542,17.052-20.985,30.246-42.215,39.341-63.13a164.079,164.079,0,0,0,13.2-69.611q.12-4.506,0-9,.12-4.506,0-9,.12-4.506,0-9a177.592,177.592,0,0,0-20.1-86.7C1399.2,30.281,1358.03-1.39,1306.29.047c-51.47,1.43-86.66,30.219-107.99,64.932-19.167,31.2-27.43,67.6-26.408,94.321-.11,3.1-.111,6.108,0,9-.11,3.1-.111,6.108,0,9-.11,3.1-.111,6.108,0,9a110.875,110.875,0,0,0,.638,17.2c7.12,58.341,48.38,116.734,133.66,145.745l.082.027c-29.294,22.027-63.406,42.973-102.182,61.947-112.853,55.224-264.549,93.573-449.032,93.573-147.581,0-330.484-29.626-485.341-69.11-77.408-19.737-147.684-41.906-202.934-64C40.9,361.322,18.381,351.01,0,341v47.341a671.206,671.206,0,0,0,63.069,28.617c55.765,22.306,126.479,44.6,204.177,64.411,155.356,39.611,339.129,69.42,487.812,69.42,185.847,0,339.07-38.63,453.422-94.59,57.64-28.2,105.51-60.866,142.7-95.284,83.36,15.656,198.56,7.6,351.77-40.785,102.266-32.294,178.966-60.613,239.05-86.1V187.159C1881.635,212.956,1804.139,241.689,1699.94,274.6Zm-351.86,39.527a312.747,312.747,0,0,1-38.67-10.347c-79.294-26.973-117.716-79.665-126.173-132.031a175.141,175.141,0,0,1,23.583-65.53c20.03-32.591,52.46-58.857,99.75-60.171,47.01-1.306,85.09,27.373,106.65,68.312a166.957,166.957,0,0,1,18.02,59.336,150.429,150.429,0,0,1-11.44,43.328C1405.88,249.027,1381.79,282.186,1348.08,314.122Z" fill="#FB8500"/></svg>