<svg width="2676" height="1390" viewBox="0 0 2676 1390" fill="none" xmlns="http://www.w3.org/2000/svg">
<path fill-rule="evenodd" clip-rule="evenodd" d="M2676 132.025V44.626C2134.88 162.28 1882.75 327.468 1830.26 368.596C1811.66 383.166 1800.88 400.351 1796.52 419.43C1794.45 428.518 1793.87 437.871 1794.49 447.382C1794.17 452.002 1794.18 456.673 1794.49 461.382C1794.17 466.002 1794.18 470.673 1794.49 475.382C1794.17 480.002 1794.18 484.673 1794.49 489.382C1794.17 494.002 1794.18 498.673 1794.49 503.382C1793.48 518.064 1795.8 533.267 1800.29 548.572C1812.09 588.724 1839.64 631.958 1866.73 672.613C1869.82 677.252 1872.9 681.856 1875.96 686.42L1875.98 686.452L1875.98 686.453L1875.98 686.455L1875.99 686.461L1875.99 686.462C1897.12 718.013 1916.95 747.625 1929.12 773.707C1926.25 776.218 1922.77 778.577 1918.59 780.767C1905.58 787.591 1889.58 788.452 1870.42 783.743C1851.21 779.021 1829.56 768.866 1806.07 754.689C1759.06 726.321 1706.52 683.007 1653.95 639.123L1650.58 636.307L1645.89 632.389L1645.57 632.122L1645.56 632.12C1596.1 590.805 1546.89 549.694 1503.5 522.049C1480.58 507.445 1458.75 496.243 1438.96 490.846C1419.13 485.441 1400.23 485.585 1384.42 495.31C1354.86 513.488 1341.84 549.595 1335.98 590.915C1332.02 618.838 1331.16 650.419 1331.32 682.876C1331.3 687.519 1331.3 692.188 1331.32 696.876C1331.3 701.519 1331.3 706.188 1331.32 710.876C1331.3 715.519 1331.3 720.188 1331.32 724.876C1331.3 729.519 1331.3 734.189 1331.32 738.877C1331.21 759.199 1331.63 780.031 1332.04 800.672V800.681V800.69L1332.04 800.712V800.714L1332.05 801.136C1332.15 806.323 1332.25 811.499 1332.35 816.652C1331.78 834.731 1330.56 851.911 1328.29 867.712C1322.56 907.523 1310.46 935.622 1288.02 948.392C1265.14 961.41 1233.85 959.423 1195.4 947.59C1158.42 936.212 1117.05 916.465 1073.88 895.86L1069.68 893.856C1025.32 872.687 979.264 850.931 935.69 837.814C892.227 824.729 849.776 819.768 813.144 833.784C803.721 837.389 785.63 847.236 761.346 861.576C736.806 876.068 705.319 895.529 668.758 918.78C595.625 965.287 502.031 1027.06 402.808 1094.78C266.506 1187.82 119.367 1292.23 0 1383.83V1390H113.44C208.814 1319.89 313.374 1246.41 412.392 1178.82C511.495 1111.18 604.932 1049.51 677.88 1003.12C714.359 979.927 745.673 960.575 769.99 946.215C794.563 931.703 811.383 922.659 819.219 919.661C850.576 907.664 888.568 911.382 930.79 924.092C972.901 936.769 1017.77 957.922 1062.36 979.199L1064.49 980.214L1067.16 981.489C1109.82 1001.85 1152.2 1022.08 1190.4 1033.84C1229.75 1045.95 1267.08 1049.87 1296.43 1033.17C1326.21 1016.22 1339.25 980.84 1345.11 940.135C1349.08 912.596 1349.93 881.26 1349.77 848.922C1349.8 844.28 1349.79 839.609 1349.77 834.916C1349.8 830.277 1349.79 825.609 1349.77 820.919C1349.8 816.279 1349.79 811.61 1349.77 806.92C1349.8 802.28 1349.79 797.611 1349.77 792.92C1349.88 772.73 1349.47 751.979 1349.06 731.369L1349.05 730.797C1348.94 725.544 1348.84 720.299 1348.74 715.074C1349.31 696.803 1350.53 679.385 1352.81 663.303C1358.54 622.906 1370.66 593.73 1393.32 579.791C1403.62 573.459 1417.12 572.515 1434.48 577.247C1451.87 581.987 1472.02 592.148 1494.37 606.386C1536.79 633.419 1585.22 673.87 1635.05 715.49L1635.05 715.491L1640.43 719.983L1643.06 722.174C1695.39 765.859 1748.95 810.077 1797.28 839.244C1821.46 853.834 1844.78 864.948 1866.36 870.251C1887.99 875.566 1908.59 875.208 1926.49 865.824C1943.85 856.722 1953.84 843.906 1957 828.012C1958.2 821.989 1958.37 815.715 1957.73 809.269C1958.23 804.718 1958.2 800.04 1957.73 795.269C1958.23 790.717 1958.2 786.04 1957.73 781.269C1958.23 776.718 1958.2 772.04 1957.73 767.269C1958.23 762.717 1958.2 758.04 1957.73 753.269C1959.28 739.222 1955.78 723.975 1949.68 708.458C1937.69 677.982 1914.07 642.741 1890.15 607.057L1890.15 607.055L1890.12 607.013L1890.1 606.972L1890.07 606.929L1890.06 606.917L1890.05 606.905L1890.04 606.893L1890.04 606.881L1890.03 606.869C1886.97 602.312 1883.92 597.749 1880.88 593.187C1854.78 554.012 1829.89 514.74 1818.17 478.829C1822.85 469.287 1830.13 460.288 1840.74 451.978C1890.78 412.772 2139.45 249.173 2676 132.025ZM838.688 881V879.195L840.445 878.844V864.887L838.582 864.535V862.719H843.387V869.961C843.809 869.367 844.32 868.906 844.922 868.578C845.531 868.25 846.219 868.086 846.984 868.086C848.289 868.086 849.316 868.504 850.066 869.34C850.816 870.168 851.191 871.449 851.191 873.184V878.844L852.938 879.195V881H846.574V879.195L848.238 878.844V873.16C848.238 872.191 848.043 871.492 847.652 871.063C847.262 870.633 846.688 870.418 845.93 870.418C845.391 870.418 844.902 870.539 844.465 870.781C844.027 871.016 843.668 871.348 843.387 871.777V878.844L845.051 879.195V881H838.688ZM798.621 881V879.195L799.863 879.02L805.512 863.938H808.383L813.961 879.02L815.203 879.195V881H809.777V879.195L810.996 878.973L810.094 876.289H803.742L802.816 878.973L804.047 879.195V881H798.621ZM804.516 874.016H809.332L807.117 867.711L806.965 867.254H806.895L806.73 867.734L804.516 874.016ZM820.992 881.246C819.633 881.246 818.57 880.816 817.805 879.957C817.047 879.09 816.668 877.746 816.668 875.926V870.488L815.238 870.137V868.32H819.621V875.949C819.621 877.043 819.793 877.813 820.137 878.258C820.488 878.695 821.027 878.914 821.754 878.914C823.02 878.914 823.922 878.426 824.461 877.449V870.488L822.867 870.137V868.32H827.414V878.844L828.914 879.195V881H824.801L824.602 879.277C824.203 879.91 823.695 880.398 823.078 880.742C822.469 881.078 821.773 881.246 820.992 881.246ZM832.57 880.32C833.172 880.922 834.012 881.223 835.09 881.223C835.496 881.223 835.922 881.188 836.367 881.117C836.812 881.047 837.203 880.961 837.539 880.859L837.246 878.785C837.184 878.799 837.114 878.814 837.039 878.828C836.906 878.853 836.752 878.878 836.578 878.902C836.446 878.918 836.319 878.93 836.198 878.937C836.077 878.945 835.961 878.949 835.852 878.949C835.469 878.949 835.164 878.828 834.938 878.586C834.719 878.344 834.609 877.953 834.609 877.414V870.43H837.117V868.32H834.609V865.238H831.668V868.32H829.816V870.43H831.668V877.414C831.668 878.742 831.969 879.711 832.57 880.32ZM856.922 880.449C857.805 880.98 858.848 881.246 860.051 881.246C861.09 881.246 861.992 881.105 862.758 880.824C863.531 880.535 864.168 880.176 864.668 879.746L863.754 877.895C863.27 878.238 862.746 878.504 862.184 878.691C861.621 878.879 860.996 878.973 860.309 878.973C859.324 878.973 858.566 878.652 858.035 878.012C857.504 877.363 857.215 876.539 857.168 875.539L857.191 875.48H864.973V873.793C864.973 872.02 864.523 870.625 863.625 869.609C862.734 868.594 861.434 868.086 859.723 868.086C858.637 868.086 857.672 868.363 856.828 868.918C855.992 869.465 855.332 870.223 854.848 871.191C854.371 872.152 854.133 873.25 854.133 874.484V874.977C854.133 876.195 854.375 877.277 854.859 878.223C855.352 879.168 856.039 879.91 856.922 880.449ZM862.148 873.406H857.238L857.203 873.348C857.305 872.48 857.574 871.758 858.012 871.18C858.457 870.602 859.039 870.313 859.758 870.313C860.578 870.313 861.18 870.57 861.562 871.086C861.953 871.602 862.148 872.273 862.148 873.102V873.406ZM866.566 881V879.195L868.324 878.844V870.488L866.473 870.137V868.32H871.043L871.195 870.16C871.617 869.504 872.141 868.996 872.766 868.637C873.398 868.27 874.113 868.086 874.91 868.086C876.215 868.086 877.23 868.488 877.957 869.293C878.684 870.098 879.047 871.348 879.047 873.043V878.844L880.805 879.195V881H874.441V879.195L876.094 878.844V873.066C876.094 872.105 875.902 871.426 875.52 871.027C875.137 870.621 874.566 870.418 873.809 870.418C873.246 870.418 872.75 870.547 872.32 870.805C871.891 871.055 871.543 871.406 871.277 871.859V878.844L872.883 879.195V881H866.566ZM883.945 880.32C884.547 880.922 885.387 881.223 886.465 881.223C886.871 881.223 887.297 881.188 887.742 881.117C887.966 881.082 888.176 881.043 888.372 880.999C888.566 880.957 888.747 880.91 888.914 880.859L888.621 878.785C888.591 878.792 888.56 878.799 888.527 878.806L888.482 878.814L888.435 878.824L888.4 878.83L888.357 878.838L888.317 878.845L888.275 878.852L888.239 878.858C888.151 878.873 888.056 878.888 887.953 878.902C887.688 878.934 887.445 878.949 887.227 878.949C886.844 878.949 886.539 878.828 886.312 878.586C886.094 878.344 885.984 877.953 885.984 877.414V870.43H888.492V868.32H885.984V865.238H883.043V868.32H881.191V870.43H883.043V877.414C883.043 878.742 883.344 879.711 883.945 880.32ZM890.367 881V879.195L892.125 878.844V870.488L890.262 870.137V868.32H895.078V878.844L896.824 879.195V881H890.367ZM892.008 865.449V862.719H895.078V865.449H892.008ZM900.938 880.438C901.812 880.977 902.844 881.246 904.031 881.246C905.656 881.246 906.875 880.844 907.688 880.039C908.508 879.234 908.988 878.211 909.129 876.969L909.094 876.898H906.539C906.406 877.547 906.125 878.055 905.695 878.422C905.266 878.789 904.715 878.973 904.043 878.973C903.199 878.973 902.508 878.625 901.969 877.93C901.438 877.234 901.172 876.215 901.172 874.871V874.461C901.172 873.227 901.438 872.227 901.969 871.461C902.5 870.688 903.254 870.301 904.23 870.301C904.629 870.301 904.996 870.371 905.332 870.512C905.668 870.645 905.945 870.824 906.164 871.051L906.598 873.289H908.848L908.836 869.902C908.32 869.387 907.66 868.957 906.855 868.613C906.051 868.262 905.105 868.086 904.02 868.086C902.832 868.086 901.801 868.363 900.926 868.918C900.059 869.465 899.391 870.219 898.922 871.18C898.453 872.141 898.219 873.234 898.219 874.461V874.871C898.219 876.121 898.453 877.227 898.922 878.188C899.398 879.141 900.07 879.891 900.938 880.438ZM915.082 881.246C913.793 881.246 912.789 880.914 912.07 880.25C911.352 879.586 910.992 878.672 910.992 877.508C910.992 876.313 911.477 875.344 912.445 874.602C913.422 873.859 914.82 873.488 916.641 873.488H918.574V872.422C918.574 871.75 918.371 871.215 917.965 870.816C917.566 870.418 916.984 870.219 916.219 870.219C915.781 870.219 915.395 870.273 915.059 870.383C914.723 870.484 914.422 870.633 914.156 870.828L913.898 872.539H911.719L911.695 869.41C912.312 868.996 913.004 868.672 913.77 868.438C914.543 868.203 915.398 868.086 916.336 868.086C917.945 868.086 919.211 868.465 920.133 869.223C921.062 869.98 921.527 871.059 921.527 872.457V878.047V878.551C921.535 878.707 921.547 878.867 921.562 879.031L922.852 879.195V881H918.996C918.918 880.727 918.844 880.461 918.773 880.203C918.711 879.945 918.664 879.688 918.633 879.43C918.211 879.961 917.699 880.398 917.098 880.742C916.496 881.078 915.824 881.246 915.082 881.246ZM915.75 878.961C916.352 878.961 916.906 878.824 917.414 878.551C917.93 878.27 918.316 877.918 918.574 877.496V875.375H916.605C915.723 875.375 915.055 875.582 914.602 875.996C914.156 876.402 913.934 876.879 913.934 877.426C913.934 878.449 914.539 878.961 915.75 878.961ZM926.32 880.32C926.922 880.922 927.762 881.223 928.84 881.223C929.246 881.223 929.672 881.188 930.117 881.117C930.427 881.068 930.711 881.012 930.968 880.947C930.992 880.941 931.016 880.935 931.04 880.929C931.077 880.92 931.114 880.91 931.15 880.9C931.197 880.887 931.244 880.873 931.289 880.859L930.996 878.785C930.905 878.806 930.8 878.827 930.68 878.847C930.648 878.853 930.615 878.858 930.581 878.864L930.503 878.876L930.461 878.883L930.377 878.895L930.328 878.902C930.062 878.934 929.82 878.949 929.602 878.949C929.219 878.949 928.914 878.828 928.688 878.586C928.469 878.344 928.359 877.953 928.359 877.414V870.43H930.867V868.32H928.359V865.238H925.418V868.32H923.566V870.43H925.418V877.414C925.418 878.742 925.719 879.711 926.32 880.32ZM938.332 881.246C937.129 881.246 936.086 880.98 935.203 880.449C934.32 879.91 933.633 879.168 933.141 878.223C932.656 877.277 932.414 876.195 932.414 874.977V874.484C932.414 873.25 932.652 872.152 933.129 871.191C933.613 870.223 934.273 869.465 935.109 868.918C935.953 868.363 936.918 868.086 938.004 868.086C939.715 868.086 941.016 868.594 941.906 869.609C942.805 870.625 943.254 872.02 943.254 873.793V875.48H935.473L935.449 875.539C935.496 876.539 935.785 877.363 936.316 878.012C936.848 878.652 937.605 878.973 938.59 878.973C939.277 878.973 939.902 878.879 940.465 878.691C941.027 878.504 941.551 878.238 942.035 877.895L942.949 879.746C942.449 880.176 941.812 880.535 941.039 880.824C940.273 881.105 939.371 881.246 938.332 881.246ZM935.52 873.406H940.43V873.102C940.43 872.273 940.234 871.602 939.844 871.086C939.461 870.57 938.859 870.313 938.039 870.313C937.32 870.313 936.738 870.602 936.293 871.18C935.855 871.758 935.586 872.48 935.484 873.348L935.52 873.406ZM1225.42 1007.18C1226.61 1007.89 1228.04 1008.25 1229.73 1008.25C1230.82 1008.25 1231.85 1008.11 1232.8 1007.85C1233.75 1007.58 1234.55 1007.23 1235.2 1006.8V1002.89H1232.98L1232.66 1005.28C1232.28 1005.48 1231.83 1005.64 1231.32 1005.76C1230.82 1005.88 1230.32 1005.94 1229.8 1005.94C1228.2 1005.94 1226.95 1005.38 1226.05 1004.27C1225.15 1003.16 1224.7 1001.64 1224.7 999.691V999.234C1224.7 997.984 1224.89 996.895 1225.28 995.965C1225.67 995.035 1226.23 994.313 1226.95 993.797C1227.68 993.281 1228.55 993.023 1229.58 993.023C1230.23 993.023 1230.81 993.102 1231.32 993.258C1231.84 993.414 1232.29 993.633 1232.67 993.914L1232.98 996.551H1235.23V992.613C1234.51 992.004 1233.66 991.531 1232.7 991.195C1231.73 990.859 1230.68 990.691 1229.54 990.691C1227.93 990.691 1226.54 991.063 1225.37 991.805C1224.21 992.539 1223.31 993.551 1222.69 994.84C1222.06 996.129 1221.75 997.602 1221.75 999.258V999.691C1221.75 1001.39 1222.06 1002.89 1222.69 1004.18C1223.32 1005.46 1224.23 1006.46 1225.42 1007.18ZM1237.27 1006.2V1008H1243.72V1006.2L1241.96 1005.84V999.234C1242.19 998.805 1242.48 998.469 1242.83 998.227C1243.18 997.984 1243.63 997.879 1244.17 997.91L1245.82 998.004L1246.16 995.273C1245.78 995.148 1245.34 995.086 1244.86 995.086C1243.57 995.086 1242.59 995.781 1241.91 997.172L1241.88 996.914L1241.73 995.32H1237.16V997.137L1239.01 997.488V1005.84L1237.27 1006.2ZM1253.07 1008.25C1251.87 1008.25 1250.83 1007.98 1249.95 1007.45C1249.06 1006.91 1248.38 1006.17 1247.88 1005.22C1247.4 1004.28 1247.16 1003.2 1247.16 1001.98V1001.48C1247.16 1000.25 1247.39 999.152 1247.87 998.191C1248.36 997.223 1249.02 996.465 1249.85 995.918C1250.7 995.363 1251.66 995.086 1252.75 995.086C1254.46 995.086 1255.76 995.594 1256.65 996.609C1257.55 997.625 1258 999.02 1258 1000.79V1002.48H1250.21L1250.19 1002.54C1250.24 1003.54 1250.53 1004.36 1251.06 1005.01C1251.59 1005.65 1252.35 1005.97 1253.33 1005.97C1254.02 1005.97 1254.64 1005.88 1255.21 1005.69C1255.77 1005.5 1256.29 1005.24 1256.78 1004.89L1257.69 1006.75C1257.19 1007.18 1256.55 1007.54 1255.78 1007.82C1255.02 1008.11 1254.11 1008.25 1253.07 1008.25ZM1250.26 1000.41H1255.17V1000.1C1255.17 999.273 1254.98 998.602 1254.59 998.086C1254.2 997.57 1253.6 997.313 1252.78 997.313C1252.06 997.313 1251.48 997.602 1251.04 998.18C1250.6 998.758 1250.33 999.48 1250.23 1000.35L1250.26 1000.41ZM1260.91 1007.25C1261.63 1007.91 1262.64 1008.25 1263.93 1008.25C1264.67 1008.25 1265.34 1008.08 1265.94 1007.74C1266.54 1007.4 1267.05 1006.96 1267.48 1006.43C1267.49 1006.55 1267.51 1006.67 1267.53 1006.79C1267.54 1006.87 1267.56 1006.95 1267.58 1007.03C1267.59 1007.09 1267.6 1007.14 1267.62 1007.2C1267.66 1007.37 1267.71 1007.53 1267.76 1007.7C1267.78 1007.8 1267.81 1007.9 1267.84 1008H1271.7V1006.2L1270.41 1006.03C1270.39 1005.87 1270.38 1005.71 1270.37 1005.55V1005.05V999.457C1270.37 998.059 1269.91 996.98 1268.98 996.223C1268.05 995.465 1266.79 995.086 1265.18 995.086C1264.24 995.086 1263.39 995.203 1262.61 995.438C1261.85 995.672 1261.16 995.996 1260.54 996.41L1260.56 999.539H1262.74L1263 997.828C1263.27 997.633 1263.57 997.484 1263.9 997.383C1264 997.351 1264.1 997.323 1264.21 997.301C1264.31 997.28 1264.41 997.264 1264.51 997.251C1264.61 997.239 1264.71 997.23 1264.81 997.225C1264.89 997.221 1264.98 997.219 1265.06 997.219C1265.83 997.219 1266.41 997.418 1266.81 997.816C1267.21 998.215 1267.42 998.75 1267.42 999.422V1000.49H1265.48C1263.66 1000.49 1262.27 1000.86 1261.29 1001.6C1260.32 1002.34 1259.84 1003.31 1259.84 1004.51C1259.84 1005.67 1260.2 1006.59 1260.91 1007.25ZM1266.26 1005.55C1265.75 1005.82 1265.2 1005.96 1264.59 1005.96C1263.38 1005.96 1262.78 1005.45 1262.78 1004.43C1262.78 1003.88 1263 1003.4 1263.45 1003C1263.9 1002.58 1264.57 1002.38 1265.45 1002.38H1267.42V1004.5C1267.16 1004.92 1266.77 1005.27 1266.26 1005.55ZM1277.68 1008.22C1276.61 1008.22 1275.77 1007.92 1275.16 1007.32C1274.56 1006.71 1274.26 1005.74 1274.26 1004.41V997.43H1272.41V995.32H1274.26V992.238H1277.2V995.32H1279.71V997.43H1277.2V1004.41C1277.2 1004.95 1277.31 1005.34 1277.53 1005.59C1277.76 1005.83 1278.06 1005.95 1278.45 1005.95C1278.66 1005.95 1278.91 1005.93 1279.17 1005.9C1279.45 1005.86 1279.67 1005.82 1279.84 1005.79L1280.13 1007.86C1279.8 1007.96 1279.41 1008.05 1278.96 1008.12C1278.52 1008.19 1278.09 1008.22 1277.68 1008.22ZM1284.05 1007.45C1284.93 1007.98 1285.97 1008.25 1287.18 1008.25C1288.21 1008.25 1289.12 1008.11 1289.88 1007.82C1290.66 1007.54 1291.29 1007.18 1291.79 1006.75L1290.88 1004.89C1290.39 1005.24 1289.87 1005.5 1289.31 1005.69C1288.75 1005.88 1288.12 1005.97 1287.43 1005.97C1286.45 1005.97 1285.69 1005.65 1285.16 1005.01C1284.63 1004.36 1284.34 1003.54 1284.29 1002.54L1284.32 1002.48H1292.1V1000.79C1292.1 999.02 1291.65 997.625 1290.75 996.609C1289.86 995.594 1288.56 995.086 1286.85 995.086C1285.76 995.086 1284.8 995.363 1283.95 995.918C1283.12 996.465 1282.46 997.223 1281.97 998.191C1281.5 999.152 1281.26 1000.25 1281.26 1001.48V1001.98C1281.26 1003.2 1281.5 1004.28 1281.98 1005.22C1282.48 1006.17 1283.16 1006.91 1284.05 1007.45ZM1289.27 1000.41H1284.36L1284.33 1000.35C1284.43 999.48 1284.7 998.758 1285.14 998.18C1285.58 997.602 1286.16 997.313 1286.88 997.313C1287.7 997.313 1288.3 997.57 1288.69 998.086C1289.08 998.602 1289.27 999.273 1289.27 1000.1V1000.41ZM1415.79 543.473C1416.52 543.988 1417.39 544.246 1418.41 544.246C1419.9 544.246 1421.05 543.652 1421.87 542.465L1422.11 544H1426.42V542.195L1424.66 541.844V525.719H1419.84V527.535L1421.71 527.887V532.691C1421.32 532.176 1420.85 531.781 1420.3 531.508C1419.76 531.227 1419.13 531.086 1418.4 531.086C1417.39 531.086 1416.52 531.367 1415.79 531.93C1415.06 532.492 1414.5 533.281 1414.11 534.297C1413.73 535.305 1413.54 536.48 1413.54 537.824V538.07C1413.54 539.305 1413.73 540.387 1414.11 541.316C1414.5 542.238 1415.06 542.957 1415.79 543.473ZM1420.7 541.539C1420.29 541.789 1419.81 541.914 1419.25 541.914C1418.28 541.914 1417.57 541.566 1417.14 540.871C1416.71 540.176 1416.49 539.242 1416.49 538.07V537.824C1416.49 536.512 1416.71 535.449 1417.16 534.637C1417.61 533.824 1418.31 533.418 1419.27 533.418C1419.82 533.418 1420.29 533.547 1420.7 533.805C1421.11 534.063 1421.45 534.422 1421.71 534.883V540.473C1421.44 540.934 1421.11 541.289 1420.7 541.539ZM1388.99 544.246C1387.71 544.246 1386.57 544.016 1385.59 543.555C1384.61 543.086 1383.85 542.414 1383.29 541.539C1382.75 540.664 1382.47 539.605 1382.47 538.363V529.105L1380.61 528.754V526.938H1387.28V528.754L1385.43 529.105V538.363C1385.43 539.551 1385.75 540.445 1386.4 541.047C1387.05 541.648 1387.91 541.949 1389 541.949C1390.11 541.949 1390.99 541.652 1391.65 541.059C1392.31 540.465 1392.64 539.566 1392.64 538.363V529.105L1390.78 528.754V526.938H1397.46V528.754L1395.6 529.105V538.363C1395.6 539.621 1395.32 540.688 1394.77 541.563C1394.22 542.438 1393.45 543.105 1392.46 543.566C1391.46 544.02 1390.31 544.246 1388.99 544.246ZM1398.67 548.875V547.059L1400.38 546.707V533.488L1398.52 533.137V531.32H1403.03L1403.21 532.82C1403.61 532.266 1404.09 531.84 1404.64 531.543C1405.21 531.238 1405.87 531.086 1406.64 531.086C1407.67 531.086 1408.55 531.367 1409.29 531.93C1410.02 532.492 1410.58 533.277 1410.96 534.285C1411.35 535.293 1411.55 536.473 1411.55 537.824V538.07C1411.55 539.305 1411.35 540.387 1410.96 541.316C1410.57 542.238 1410.01 542.957 1409.27 543.473C1408.54 543.988 1407.66 544.246 1406.64 544.246C1405.21 544.246 1404.11 543.746 1403.32 542.746V546.707L1405.12 547.059V548.875H1398.67ZM1405.75 541.973C1406.71 541.973 1407.43 541.617 1407.89 540.906C1408.36 540.188 1408.59 539.242 1408.59 538.07V537.824C1408.59 536.52 1408.36 535.461 1407.88 534.648C1407.41 533.828 1406.69 533.418 1405.72 533.418C1405.18 533.418 1404.7 533.543 1404.29 533.793C1403.89 534.035 1403.56 534.379 1403.32 534.824V540.637C1403.83 541.527 1404.64 541.973 1405.75 541.973ZM1431.9 544.246C1430.61 544.246 1429.61 543.914 1428.89 543.25C1428.17 542.586 1427.81 541.672 1427.81 540.508C1427.81 539.313 1428.3 538.344 1429.27 537.602C1430.24 536.859 1431.64 536.488 1433.46 536.488H1435.39V535.422C1435.39 534.75 1435.19 534.215 1434.79 533.816C1434.39 533.418 1433.8 533.219 1433.04 533.219C1432.6 533.219 1432.21 533.273 1431.88 533.383C1431.54 533.484 1431.24 533.633 1430.98 533.828L1430.72 535.539H1428.54L1428.52 532.41C1429.13 531.996 1429.82 531.672 1430.59 531.438C1431.36 531.203 1432.22 531.086 1433.16 531.086C1434.77 531.086 1436.03 531.465 1436.95 532.223C1437.88 532.98 1438.35 534.059 1438.35 535.457V541.047V541.551L1438.35 541.624L1438.36 541.684C1438.36 541.798 1438.37 541.914 1438.38 542.031L1439.67 542.195V544H1435.82C1435.74 543.727 1435.66 543.461 1435.59 543.203C1435.53 542.945 1435.48 542.688 1435.45 542.43C1435.03 542.961 1434.52 543.398 1433.92 543.742C1433.32 544.078 1432.64 544.246 1431.9 544.246ZM1432.57 541.961C1433.17 541.961 1433.73 541.824 1434.23 541.551C1434.75 541.27 1435.14 540.918 1435.39 540.496V538.375H1433.43C1432.54 538.375 1431.88 538.582 1431.42 538.996C1430.98 539.402 1430.75 539.879 1430.75 540.426C1430.75 541.449 1431.36 541.961 1432.57 541.961ZM1443.14 543.32C1443.74 543.922 1444.58 544.223 1445.66 544.223C1445.81 544.223 1445.95 544.218 1446.1 544.209C1446.21 544.203 1446.31 544.195 1446.42 544.184L1446.48 544.178C1446.51 544.174 1446.55 544.171 1446.58 544.167L1446.66 544.157L1446.73 544.148C1446.78 544.141 1446.83 544.133 1446.89 544.125L1446.94 544.117C1447.23 544.072 1447.49 544.019 1447.73 543.961C1447.87 543.929 1447.99 543.895 1448.11 543.859L1447.82 541.785C1447.64 541.824 1447.42 541.863 1447.15 541.902C1446.88 541.934 1446.64 541.949 1446.42 541.949C1446.04 541.949 1445.73 541.828 1445.51 541.586C1445.29 541.344 1445.18 540.953 1445.18 540.414V533.43H1447.69V531.32H1445.18V528.238H1442.24V531.32H1440.39V533.43H1442.24V540.414C1442.24 541.742 1442.54 542.711 1443.14 543.32ZM1455.15 544.246C1453.95 544.246 1452.91 543.98 1452.02 543.449C1451.14 542.91 1450.45 542.168 1449.96 541.223C1449.48 540.277 1449.23 539.195 1449.23 537.977V537.484C1449.23 536.25 1449.47 535.152 1449.95 534.191C1450.43 533.223 1451.09 532.465 1451.93 531.918C1452.77 531.363 1453.74 531.086 1454.82 531.086C1456.54 531.086 1457.84 531.594 1458.73 532.609C1459.62 533.625 1460.07 535.02 1460.07 536.793V538.48H1452.29L1452.27 538.539C1452.32 539.539 1452.61 540.363 1453.14 541.012C1453.67 541.652 1454.43 541.973 1455.41 541.973C1456.1 541.973 1456.72 541.879 1457.29 541.691C1457.85 541.504 1458.37 541.238 1458.86 540.895L1459.77 542.746C1459.27 543.176 1458.63 543.535 1457.86 543.824C1457.09 544.105 1456.19 544.246 1455.15 544.246ZM1452.34 536.406H1457.25V536.102C1457.25 535.273 1457.05 534.602 1456.66 534.086C1456.28 533.57 1455.68 533.313 1454.86 533.313C1454.14 533.313 1453.56 533.602 1453.11 534.18C1452.68 534.758 1452.41 535.48 1452.3 536.348L1452.34 536.406ZM1863.35 835.953L1867.88 839.117L1869.39 837.02L1865.86 834.711C1866.84 833.938 1867.56 832.938 1868.02 831.711C1868.49 830.477 1868.73 829.105 1868.73 827.598V827.34C1868.73 825.676 1868.42 824.191 1867.81 822.887C1867.21 821.582 1866.35 820.559 1865.22 819.816C1864.11 819.066 1862.78 818.691 1861.24 818.691C1859.73 818.691 1858.42 819.066 1857.3 819.816C1856.19 820.559 1855.33 821.582 1854.71 822.887C1854.1 824.191 1853.8 825.676 1853.8 827.34V827.598C1853.8 829.27 1854.1 830.758 1854.71 832.063C1855.33 833.367 1856.2 834.391 1857.31 835.133C1858.43 835.875 1859.74 836.246 1861.25 836.246C1861.6 836.246 1861.95 836.219 1862.3 836.164C1862.66 836.109 1863 836.039 1863.35 835.953ZM1864.65 832.168C1863.91 833.324 1862.77 833.902 1861.25 833.902C1860.26 833.902 1859.43 833.641 1858.77 833.117C1858.1 832.586 1857.6 831.848 1857.25 830.902C1856.92 829.949 1856.75 828.848 1856.75 827.598V827.316C1856.75 826.074 1856.92 824.984 1857.25 824.047C1857.6 823.102 1858.1 822.367 1858.77 821.844C1859.43 821.313 1860.25 821.047 1861.24 821.047C1862.26 821.047 1863.11 821.313 1863.78 821.844C1864.45 822.375 1864.95 823.113 1865.28 824.059C1865.61 824.996 1865.77 826.082 1865.77 827.316V827.598C1865.77 829.48 1865.4 831.004 1864.65 832.168ZM1872.69 834.957C1873.45 835.816 1874.52 836.246 1875.88 836.246C1876.66 836.246 1877.35 836.078 1877.96 835.742C1878.58 835.398 1879.09 834.91 1879.48 834.277L1879.68 836H1883.8V834.195L1882.3 833.844V823.32H1877.75V825.137L1879.34 825.488V832.449C1878.8 833.426 1877.9 833.914 1876.64 833.914C1875.91 833.914 1875.37 833.695 1875.02 833.258C1874.68 832.813 1874.5 832.043 1874.5 830.949V823.32H1870.12V825.137L1871.55 825.488V830.926C1871.55 832.746 1871.93 834.09 1872.69 834.957ZM1888.02 835.449C1888.9 835.98 1889.94 836.246 1891.14 836.246C1892.18 836.246 1893.09 836.105 1893.85 835.824C1894.62 835.535 1895.26 835.176 1895.76 834.746L1894.85 832.895C1894.36 833.238 1893.84 833.504 1893.28 833.691C1892.71 833.879 1892.09 833.973 1891.4 833.973C1890.42 833.973 1889.66 833.652 1889.13 833.012C1888.6 832.363 1888.31 831.539 1888.26 830.539L1888.29 830.48H1896.07V828.793C1896.07 827.02 1895.62 825.625 1894.72 824.609C1893.83 823.594 1892.53 823.086 1890.82 823.086C1889.73 823.086 1888.77 823.363 1887.92 823.918C1887.09 824.465 1886.43 825.223 1885.94 826.191C1885.46 827.152 1885.23 828.25 1885.23 829.484V829.977C1885.23 831.195 1885.47 832.277 1885.95 833.223C1886.45 834.168 1887.13 834.91 1888.02 835.449ZM1893.24 828.406H1888.33L1888.3 828.348C1888.4 827.48 1888.67 826.758 1889.11 826.18C1889.55 825.602 1890.13 825.313 1890.85 825.313C1891.67 825.313 1892.27 825.57 1892.66 826.086C1893.05 826.602 1893.24 827.273 1893.24 828.102V828.406ZM1897.88 834.195V836H1904.34V834.195L1902.58 833.844V827.234C1902.81 826.805 1903.1 826.469 1903.45 826.227C1903.8 825.984 1904.25 825.879 1904.79 825.91L1906.44 826.004L1906.78 823.273C1906.39 823.148 1905.96 823.086 1905.48 823.086C1904.19 823.086 1903.2 823.781 1902.52 825.172L1902.5 824.914L1902.35 823.32H1897.78V825.137L1899.63 825.488V833.844L1897.88 834.195ZM1910.54 841.051C1910.86 841.098 1911.14 841.121 1911.38 841.121C1912.52 841.121 1913.4 840.809 1914.03 840.184C1914.66 839.566 1915.15 838.809 1915.5 837.91L1920.41 825.336L1921.78 825.137V823.32H1915.95V825.137L1917.51 825.359L1914.91 832.379H1914.84L1914.45 831.277L1912.26 825.371L1913.81 825.137V823.32H1907.67V825.137L1909.14 825.348L1913.48 835.977L1913.09 836.984C1912.88 837.547 1912.61 837.98 1912.27 838.285C1911.94 838.59 1911.52 838.742 1911.03 838.742C1910.91 838.742 1910.75 838.734 1910.55 838.719C1910.35 838.703 1910.18 838.684 1910.05 838.66L1909.72 840.875C1909.95 840.945 1910.23 841.004 1910.54 841.051ZM1851.55 404.195V406H1858.04V404.195L1856.28 403.844V387.719H1851.45V389.535L1853.32 389.887V403.844L1851.55 404.195ZM1822.77 406V404.195L1824.65 403.832V391.129L1822.77 390.754V388.938H1829.92C1831.44 388.938 1832.77 389.297 1833.92 390.016C1835.07 390.734 1835.96 391.723 1836.6 392.98C1837.24 394.238 1837.56 395.68 1837.56 397.305V397.645C1837.56 399.246 1837.25 400.68 1836.61 401.945C1835.99 403.203 1835.11 404.195 1833.98 404.922C1832.84 405.641 1831.52 406 1830 406H1822.77ZM1827.6 403.727H1829.85C1830.85 403.727 1831.7 403.461 1832.41 402.93C1833.12 402.391 1833.66 401.664 1834.04 400.75C1834.41 399.828 1834.6 398.793 1834.6 397.645V397.293C1834.6 396.121 1834.41 395.078 1834.04 394.164C1833.66 393.25 1833.12 392.531 1832.41 392.008C1831.7 391.484 1830.85 391.223 1829.85 391.223H1827.6V403.727ZM1845.12 406.246C1843.92 406.246 1842.88 405.98 1841.99 405.449C1841.11 404.91 1840.42 404.168 1839.93 403.223C1839.45 402.277 1839.2 401.195 1839.2 399.977V399.484C1839.2 398.25 1839.44 397.152 1839.92 396.191C1840.4 395.223 1841.06 394.465 1841.9 393.918C1842.74 393.363 1843.71 393.086 1844.79 393.086C1846.5 393.086 1847.8 393.594 1848.7 394.609C1849.59 395.625 1850.04 397.02 1850.04 398.793V400.48H1842.26L1842.24 400.539C1842.29 401.539 1842.57 402.363 1843.11 403.012C1843.64 403.652 1844.39 403.973 1845.38 403.973C1846.07 403.973 1846.69 403.879 1847.25 403.691C1847.82 403.504 1848.34 403.238 1848.82 402.895L1849.74 404.746C1849.24 405.176 1848.6 405.535 1847.83 405.824C1847.06 406.105 1846.16 406.246 1845.12 406.246ZM1842.31 398.406H1847.22V398.102C1847.22 397.273 1847.02 396.602 1846.63 396.086C1846.25 395.57 1845.65 395.313 1844.83 395.313C1844.11 395.313 1843.53 395.602 1843.08 396.18C1842.64 396.758 1842.38 397.48 1842.27 398.348L1842.31 398.406ZM1865.09 406.246C1863.89 406.246 1862.84 405.98 1861.96 405.449C1861.08 404.91 1860.39 404.168 1859.9 403.223C1859.41 402.277 1859.17 401.195 1859.17 399.977V399.484C1859.17 398.25 1859.41 397.152 1859.89 396.191C1860.37 395.223 1861.03 394.465 1861.87 393.918C1862.71 393.363 1863.68 393.086 1864.76 393.086C1866.47 393.086 1867.77 393.594 1868.66 394.609C1869.56 395.625 1870.01 397.02 1870.01 398.793V400.48H1862.23L1862.21 400.539C1862.25 401.539 1862.54 402.363 1863.07 403.012C1863.61 403.652 1864.36 403.973 1865.35 403.973C1866.04 403.973 1866.66 403.879 1867.22 403.691C1867.79 403.504 1868.31 403.238 1868.79 402.895L1869.71 404.746C1869.21 405.176 1868.57 405.535 1867.8 405.824C1867.03 406.105 1866.13 406.246 1865.09 406.246ZM1862.28 398.406H1867.19V398.102C1867.19 397.273 1866.99 396.602 1866.6 396.086C1866.22 395.57 1865.62 395.313 1864.8 395.313C1864.08 395.313 1863.5 395.602 1863.05 396.18C1862.61 396.758 1862.34 397.48 1862.24 398.348L1862.28 398.406ZM1873.94 405.32C1874.54 405.922 1875.38 406.223 1876.46 406.223C1876.86 406.223 1877.29 406.188 1877.73 406.117C1878.18 406.047 1878.57 405.961 1878.91 405.859L1878.61 403.785C1878.5 403.811 1878.36 403.837 1878.21 403.862C1878.13 403.876 1878.04 403.889 1877.95 403.902C1877.82 403.918 1877.69 403.929 1877.57 403.937C1877.45 403.945 1877.33 403.949 1877.22 403.949C1876.84 403.949 1876.53 403.828 1876.3 403.586C1876.09 403.344 1875.98 402.953 1875.98 402.414V395.43H1878.48V393.32H1875.98V390.238H1873.04V393.32H1871.18V395.43H1873.04V402.414C1873.04 403.742 1873.34 404.711 1873.94 405.32ZM1885.95 406.246C1884.75 406.246 1883.7 405.98 1882.82 405.449C1881.94 404.91 1881.25 404.168 1880.76 403.223C1880.27 402.277 1880.03 401.195 1880.03 399.977V399.484C1880.03 398.25 1880.27 397.152 1880.75 396.191C1881.23 395.223 1881.89 394.465 1882.73 393.918C1883.57 393.363 1884.54 393.086 1885.62 393.086C1887.33 393.086 1888.63 393.594 1889.52 394.609C1890.42 395.625 1890.87 397.02 1890.87 398.793V400.48H1883.09L1883.07 400.539C1883.11 401.539 1883.4 402.363 1883.93 403.012C1884.46 403.652 1885.22 403.973 1886.21 403.973C1886.89 403.973 1887.52 403.879 1888.08 403.691C1888.64 403.504 1889.17 403.238 1889.65 402.895L1890.57 404.746C1890.07 405.176 1889.43 405.535 1888.66 405.824C1887.89 406.105 1886.99 406.246 1885.95 406.246ZM1883.14 398.406H1888.05V398.102C1888.05 397.273 1887.85 396.602 1887.46 396.086C1887.08 395.57 1886.48 395.313 1885.66 395.313C1884.94 395.313 1884.36 395.602 1883.91 396.18C1883.47 396.758 1883.2 397.48 1883.1 398.348L1883.14 398.406Z" fill="#FFB703"/>
</svg>
